<svg width="178" height="55" viewBox="0 0 178 55" fill="none" xmlns="http://www.w3.org/2000/svg">
<g clip-path="url(#clip0_1_665)">
<path d="M27.016 0.0127434L27.0287 0C12.0989 0 0 12.0989 0 27.0287C0 41.9585 10.5788 52.4718 24.1578 53.9009C20.4095 52.6958 17.5768 50.7551 16.8049 47.1633C16.6738 46.5334 16.4517 45.9181 16.3061 45.2882C15.9529 43.7408 15.2975 42.3263 14.0651 41.1193C13.7629 40.8171 13.5153 40.4639 13.2258 40.149C11.1942 37.9462 10.6699 35.5086 11.693 32.8343C12.0462 31.9167 12.3484 30.9992 12.676 30.0817C13.2404 28.4833 13.3715 26.8704 12.8599 25.2574C12.1918 23.1602 12.8854 21.3506 14.3673 19.7122C15.0481 18.9513 15.9657 18.3359 16.6083 17.5622C17.4603 16.5264 18.2995 15.4395 18.862 14.2853C19.4519 13.0802 20.1473 12.0443 21.2341 11.0868C22.4393 10.0254 23.3714 8.72741 24.42 7.53499C24.6039 7.32563 24.7732 7.10171 24.9443 6.87961C25.0226 6.9051 25.0881 6.93241 25.1664 6.95789C23.8811 10.4441 22.6359 13.9322 21.3124 17.4057C18.822 23.9339 17.2891 30.5787 17.6168 37.4747C17.8262 42.0368 19.0059 46.4278 21.5891 50.4511C22.4011 51.7218 23.5298 52.8359 24.7094 53.9646C25.4704 54.0302 26.2423 54.0702 27.016 54.0702C27.7897 54.0702 28.629 54.0302 29.4281 53.9646C33.6098 50.3073 35.1426 45.6669 36.0092 40.8298C37.3072 33.5807 35.8526 26.5154 33.4933 19.5684C32.1425 15.5706 30.6096 11.6111 29.1678 7.64058C29.0895 7.41848 29.024 7.18181 28.9457 6.95971L29.064 6.90692C29.8632 7.88998 30.6369 8.88579 31.4889 9.84336C32.0387 10.4587 32.7469 10.9575 33.2985 11.5728C33.8483 12.1754 34.5037 12.7925 34.7531 13.4989C35.4995 15.5834 36.8758 17.2873 38.6853 18.7819C40.1399 19.9871 41.1757 21.4034 41.3596 23.1602C41.4251 23.7901 41.3851 24.4455 41.2158 25.0481C40.717 26.8048 40.7825 28.5343 41.3997 30.2656C41.8457 31.5108 42.2516 32.7815 42.6321 34.0413C43.1437 35.758 42.816 37.3837 41.7674 38.891C41.3341 39.5063 40.9027 40.149 40.3511 40.686C38.7527 42.2462 37.9389 44.0812 37.5075 46.0874C37.2981 47.0577 36.9832 48.0135 36.5772 48.931C35.3575 51.7091 32.6577 52.9688 29.7085 53.9392C43.3676 52.5884 54.0502 41.0665 54.0502 27.0415C54.0502 13.0165 41.9458 0.0127434 27.016 0.0127434ZM28.9694 10.2238L29.6648 12.321C30.8317 15.5597 32.0642 18.7838 33.0728 22.0606C35.1044 28.6417 35.7853 35.3138 34.3307 42.0641C33.6881 45.0534 32.614 47.9243 30.7134 50.5185C30.1891 51.2394 29.5865 51.9202 28.9184 52.5501C27.3055 54.0702 26.6119 54.032 24.9607 52.4445C24.3454 51.8547 23.781 51.2121 23.2822 50.5312C20.9629 47.3199 19.8214 43.7535 19.2844 40.0452C18.1575 32.2463 19.6521 24.7222 22.523 17.3292C23.3623 15.1665 24.7386 11.0376 25.2228 9.55573C25.2228 9.55573 26.1931 5.78004 26.9923 5.45235C26.9923 5.45235 27.7132 8.07385 28.5124 9.34637C28.5379 9.38642 28.5652 9.4374 28.5907 9.47745C28.6817 9.59578 28.7618 9.7396 28.8001 9.89616V9.93621C28.8401 10.0418 28.8784 10.1328 28.9184 10.2384L28.9712 10.2257L28.9694 10.2238Z" fill="black"/>
<path d="M27.0288 17.3896C27.0015 17.3623 26.9469 17.3623 26.9341 17.3896C26.5828 17.8502 26.3115 18.1469 26.1495 18.4728C23.863 23.1806 22.7816 28.0631 23.5936 33.1641C23.8375 34.6387 24.2289 36.0988 25.3394 37.3167C26.3407 38.4126 27.7333 38.4672 28.6399 37.3167C29.2753 36.5193 29.8178 35.5708 30.0599 34.6387C31.5618 28.997 30.3567 23.5866 27.8007 18.3508C27.6514 18.0541 27.382 17.8102 27.0288 17.3896Z" fill="black"/>
<path d="M61.1717 53.7023V48.8926H61.5267L63.4364 52.5153L65.3334 48.8926H65.6884V53.7023H65.2988V49.7045L63.5857 52.9595H63.2853L61.5522 49.7118V53.7023H61.1699H61.1717ZM67.8893 53.7569C67.6672 53.7569 67.467 53.7132 67.2886 53.6277C67.1156 53.5421 66.9773 53.4238 66.8717 53.2727C66.7716 53.1234 66.7224 52.9541 66.7224 52.7684C66.7224 52.5226 66.7843 52.3315 66.9063 52.1949C67.0282 52.0548 67.2358 51.9546 67.5271 51.8946C67.8183 51.8363 68.2188 51.8054 68.7286 51.8054H68.9398V51.5596C68.9398 51.2556 68.8779 51.0335 68.7559 50.8969C68.6321 50.7568 68.4373 50.6858 68.1697 50.6858C67.9694 50.6858 67.7765 50.7149 67.5889 50.775C67.4069 50.8332 67.2176 50.9279 67.0228 51.0553L66.8589 50.7349C67.0319 50.6129 67.2358 50.5146 67.4724 50.4418C67.7091 50.369 67.9385 50.3326 68.1606 50.3326C68.5611 50.3326 68.856 50.4345 69.0472 50.6402C69.242 50.8441 69.3403 51.1591 69.3403 51.5814V53.7023H68.9452V53.1088C68.8542 53.3127 68.7158 53.4729 68.5283 53.5858C68.3463 53.6987 68.1333 53.7569 67.8875 53.7569H67.8893ZM67.9439 53.4219C68.1387 53.4219 68.3099 53.3764 68.4555 53.2854C68.6048 53.1907 68.7231 53.0597 68.8105 52.8958C68.8961 52.732 68.9398 52.5463 68.9398 52.3369V52.1112H68.7359C68.3262 52.1112 68.0058 52.1294 67.7746 52.1658C67.5471 52.2022 67.3887 52.2659 67.2977 52.357C67.2067 52.448 67.1611 52.5736 67.1611 52.732C67.1611 52.9359 67.2321 53.1034 67.3723 53.2308C67.5125 53.3582 67.7036 53.4219 67.9458 53.4219H67.9439ZM70.4307 53.7023V50.3927H70.8403V50.9861C70.9496 50.7677 71.1061 50.6038 71.3118 50.4946C71.5176 50.3854 71.7433 50.3308 71.9945 50.3308C72.781 50.3308 73.1742 50.7586 73.1742 51.6142V53.7023H72.7573V51.6488C72.7573 51.3211 72.6918 51.0808 72.5589 50.9261C72.4278 50.7713 72.2184 50.693 71.9308 50.693C71.6031 50.693 71.3391 50.795 71.1389 51.0007C70.9441 51.201 70.8458 51.4722 70.8458 51.8126V53.7023H70.4289H70.4307ZM75.4971 53.7569C75.1294 53.7569 74.8509 53.6568 74.6652 53.4565C74.4831 53.2563 74.3921 52.9705 74.3921 52.5973V50.7276H73.7367V50.3927H74.3921V49.3695H74.809V50.3927H75.8794V50.7276H74.809V52.5426C74.809 52.8212 74.8654 53.0324 74.9801 53.178C75.093 53.3236 75.2823 53.3965 75.5463 53.3965C75.6246 53.3965 75.6992 53.3874 75.772 53.3692C75.8449 53.3509 75.9086 53.3309 75.9632 53.3073L76.0451 53.6349C75.996 53.6659 75.9159 53.6932 75.8066 53.7169C75.6974 53.7442 75.5954 53.7569 75.499 53.7569H75.4971ZM77.9402 53.7569C77.4305 53.7569 77.0282 53.6076 76.7332 53.3073C76.442 53.0032 76.2963 52.5863 76.2963 52.0584C76.2963 51.718 76.3619 51.4176 76.4948 51.1573C76.6277 50.8969 76.8079 50.6949 77.0409 50.5492C77.2776 50.4036 77.5488 50.3308 77.8528 50.3308C78.2934 50.3308 78.6375 50.4746 78.8832 50.7604C79.129 51.0462 79.251 51.4413 79.251 51.9401V52.1312H76.7059C76.7205 52.5408 76.8316 52.8576 77.0409 53.0797C77.2539 53.2982 77.5506 53.4074 77.9275 53.4074C78.1314 53.4074 78.3225 53.3764 78.5009 53.3127C78.683 53.249 78.8596 53.1416 79.0325 52.9923L79.1964 53.3054C79.0507 53.4456 78.865 53.5585 78.6375 53.6404C78.4099 53.7169 78.1787 53.7569 77.9421 53.7569H77.9402ZM77.8583 50.6657C77.5124 50.6657 77.2412 50.775 77.0464 50.9934C76.8552 51.2064 76.7442 51.4849 76.7114 51.8254H78.8741C78.865 51.4613 78.774 51.1773 78.6011 50.9734C78.4281 50.7695 78.1805 50.6657 77.8583 50.6657ZM80.0975 53.7023V50.3927H80.5071V50.9861C80.6163 50.7677 80.7729 50.6038 80.9786 50.4946C81.1825 50.3854 81.4101 50.3308 81.6613 50.3308C82.4478 50.3308 82.841 50.7586 82.841 51.6142V53.7023H82.4241V51.6488C82.4241 51.3211 82.3586 51.0808 82.2257 50.9261C82.0946 50.7713 81.8852 50.693 81.5976 50.693C81.2699 50.693 81.0059 50.795 80.8057 51.0007C80.6109 51.201 80.5126 51.4722 80.5126 51.8126V53.7023H80.0957H80.0975ZM83.9151 53.7023V48.8926H84.332V50.9661C84.4448 50.7568 84.6032 50.6002 84.8035 50.4946C85.0074 50.3854 85.2331 50.3308 85.4789 50.3308C86.2653 50.3308 86.6585 50.7586 86.6585 51.6142V53.7023H86.2416V51.6488C86.2416 51.3211 86.1761 51.0808 86.0432 50.9261C85.9121 50.7713 85.7028 50.693 85.4151 50.693C85.0875 50.693 84.8235 50.795 84.6232 51.0007C84.4284 51.201 84.3301 51.4722 84.3301 51.8126V53.7023H83.9132H83.9151ZM88.7576 53.7569C88.5336 53.7569 88.3352 53.7132 88.1568 53.6277C87.9838 53.5421 87.8455 53.4238 87.7399 53.2727C87.6398 53.1234 87.5906 52.9541 87.5906 52.7684C87.5906 52.5226 87.6525 52.3315 87.7745 52.1949C87.8983 52.0548 88.104 51.9546 88.3953 51.8946C88.6866 51.8363 89.0871 51.8054 89.5968 51.8054H89.808V51.5596C89.808 51.2556 89.7461 51.0335 89.6241 50.8969C89.5021 50.7568 89.3055 50.6858 89.0379 50.6858C88.8377 50.6858 88.6447 50.7149 88.459 50.775C88.2769 50.8332 88.0876 50.9279 87.8928 51.0553L87.729 50.7349C87.9019 50.6129 88.1058 50.5146 88.3425 50.4418C88.5791 50.369 88.8085 50.3326 89.0306 50.3326C89.4311 50.3326 89.7261 50.4345 89.9172 50.6402C90.112 50.8441 90.2103 51.1591 90.2103 51.5814V53.7023H89.8153V53.1088C89.7242 53.3127 89.5859 53.4729 89.3984 53.5858C89.2163 53.6987 89.0033 53.7569 88.7576 53.7569ZM88.8122 53.4219C89.007 53.4219 89.1781 53.3764 89.3237 53.2854C89.473 53.1907 89.5913 53.0597 89.6787 52.8958C89.7643 52.732 89.808 52.5463 89.808 52.3369V52.1112H89.6041C89.1945 52.1112 88.8741 52.1294 88.6429 52.1658C88.4153 52.2022 88.2569 52.2659 88.1659 52.357C88.0749 52.448 88.0294 52.5736 88.0294 52.732C88.0294 52.9359 88.1004 53.1034 88.2405 53.2308C88.3807 53.3582 88.5719 53.4219 88.814 53.4219H88.8122ZM94.0333 53.7569C93.8112 53.7569 93.611 53.7132 93.4326 53.6277C93.2596 53.5421 93.1213 53.4238 93.0157 53.2727C92.9155 53.1234 92.8664 52.9541 92.8664 52.7684C92.8664 52.5226 92.9283 52.3315 93.0503 52.1949C93.1741 52.0548 93.3798 51.9546 93.671 51.8946C93.9623 51.8363 94.3628 51.8054 94.8726 51.8054H95.0837V51.5596C95.0837 51.2556 95.0218 51.0335 94.8999 50.8969C94.7761 50.7568 94.5813 50.6858 94.3137 50.6858C94.1134 50.6858 93.9205 50.7149 93.7348 50.775C93.5527 50.8332 93.3634 50.9279 93.1686 51.0553L93.0047 50.7349C93.1777 50.6129 93.3816 50.5146 93.6183 50.4418C93.8549 50.369 94.0843 50.3326 94.3064 50.3326C94.7069 50.3326 95.0018 50.4345 95.193 50.6402C95.3878 50.8441 95.4861 51.1591 95.4861 51.5814V53.7023H95.091V53.1088C95 53.3127 94.8616 53.4729 94.6741 53.5858C94.4921 53.6987 94.2791 53.7569 94.0333 53.7569ZM94.0879 53.4219C94.2827 53.4219 94.4539 53.3764 94.5995 53.2854C94.7488 53.1907 94.8671 53.0597 94.9545 52.8958C95.0401 52.732 95.0837 52.5463 95.0837 52.3369V52.1112H94.8798C94.4702 52.1112 94.1498 52.1294 93.9186 52.1658C93.6911 52.2022 93.5327 52.2659 93.4417 52.357C93.3506 52.448 93.3051 52.5736 93.3051 52.732C93.3051 52.9359 93.3761 53.1034 93.5163 53.2308C93.6565 53.3582 93.8476 53.4219 94.0898 53.4219H94.0879ZM99.3655 53.7569C99.1198 53.7569 98.8831 53.7205 98.6555 53.6477C98.4334 53.5749 98.2477 53.4711 98.1021 53.3346L98.2514 53.0269C98.4189 53.1634 98.5991 53.2636 98.7902 53.3273C98.9814 53.3855 99.1762 53.4165 99.3764 53.4165C99.6586 53.4165 99.8698 53.3673 100.01 53.2672C100.156 53.1634 100.228 53.0196 100.228 52.8376C100.228 52.6974 100.181 52.5845 100.085 52.5026C99.99 52.4207 99.8388 52.3551 99.635 52.3042L99.0415 52.1676C98.4826 52.0402 98.2022 51.7507 98.2022 51.3011C98.2022 51.0098 98.3169 50.775 98.5427 50.5984C98.7702 50.4218 99.0706 50.3326 99.4438 50.3326C99.6714 50.3326 99.8844 50.3708 100.085 50.4491C100.285 50.5219 100.449 50.6293 100.576 50.7695L100.412 51.0772C100.281 50.9461 100.13 50.8478 99.9626 50.7841C99.7952 50.7149 99.6186 50.6821 99.4365 50.6821C99.1726 50.6821 98.9687 50.7367 98.823 50.846C98.6828 50.9552 98.6118 51.1026 98.6118 51.2902C98.6118 51.4303 98.6555 51.545 98.7411 51.6306C98.8267 51.7161 98.9687 51.7835 99.1635 51.829L99.7569 51.9656C100.052 52.0347 100.274 52.1367 100.42 52.2732C100.565 52.4043 100.638 52.5845 100.638 52.8121C100.638 53.107 100.522 53.34 100.29 53.5075C100.057 53.6768 99.7496 53.7606 99.3619 53.7606L99.3655 53.7569ZM102.712 53.7569C101.925 53.7569 101.532 53.3291 101.532 52.4735V50.3927H101.949V52.4534C101.949 52.7757 102.014 53.016 102.147 53.1707C102.278 53.3255 102.486 53.4019 102.768 53.4019C103.072 53.4019 103.321 53.3 103.513 53.0943C103.707 52.8904 103.806 52.6173 103.806 52.275V50.3927H104.223V53.7023H103.82V53.1161C103.711 53.3255 103.558 53.4838 103.363 53.5931C103.172 53.7023 102.956 53.7569 102.715 53.7569H102.712ZM106.34 53.7569C106.118 53.7569 105.917 53.7132 105.739 53.6277C105.566 53.5421 105.428 53.4238 105.322 53.2727C105.222 53.1234 105.173 52.9541 105.173 52.7684C105.173 52.5226 105.235 52.3315 105.357 52.1949C105.481 52.0548 105.686 51.9546 105.978 51.8946C106.269 51.8363 106.669 51.8054 107.179 51.8054H107.39V51.5596C107.39 51.2556 107.328 51.0335 107.206 50.8969C107.083 50.7568 106.888 50.6858 106.62 50.6858C106.42 50.6858 106.227 50.7149 106.041 50.775C105.859 50.8332 105.67 50.9279 105.475 51.0553L105.311 50.7349C105.484 50.6129 105.688 50.5146 105.925 50.4418C106.161 50.369 106.391 50.3326 106.613 50.3326C107.013 50.3326 107.308 50.4345 107.499 50.6402C107.694 50.8441 107.793 51.1591 107.793 51.5814V53.7023H107.398V53.1088C107.306 53.3127 107.168 53.4729 106.981 53.5858C106.799 53.6987 106.586 53.7569 106.34 53.7569ZM106.394 53.4219C106.589 53.4219 106.76 53.3764 106.906 53.2854C107.055 53.1907 107.174 53.0597 107.261 52.8958C107.347 52.732 107.39 52.5463 107.39 52.3369V52.1112H107.186C106.777 52.1112 106.456 52.1294 106.225 52.1658C105.998 52.2022 105.839 52.2659 105.748 52.357C105.657 52.448 105.612 52.5736 105.612 52.732C105.612 52.9359 105.683 53.1034 105.823 53.2308C105.963 53.3582 106.154 53.4219 106.396 53.4219H106.394ZM111.945 53.7569C111.623 53.7569 111.344 53.6859 111.113 53.5457C110.882 53.4001 110.702 53.198 110.574 52.9377C110.45 52.6737 110.39 52.3697 110.39 52.0238C110.39 51.5013 110.527 51.0881 110.8 50.7895C111.079 50.4855 111.459 50.3326 111.947 50.3326C112.147 50.3326 112.346 50.3708 112.54 50.4491C112.735 50.5274 112.899 50.633 113.032 50.7695L112.868 51.0826C112.728 50.9461 112.577 50.8478 112.418 50.7895C112.26 50.7258 112.107 50.6949 111.961 50.6949C111.594 50.6949 111.31 50.8114 111.109 51.0426C110.915 51.2756 110.816 51.6051 110.816 52.0329C110.816 52.4607 110.915 52.7975 111.109 53.0433C111.31 53.2836 111.594 53.4056 111.961 53.4056C112.107 53.4056 112.26 53.3764 112.418 53.3164C112.577 53.2526 112.728 53.1525 112.868 53.016L113.032 53.3291C112.901 53.4602 112.733 53.5658 112.533 53.6422C112.338 53.7187 112.142 53.7587 111.947 53.7587L111.945 53.7569ZM113.726 53.7023V48.8926H114.142V50.9661C114.257 50.7568 114.414 50.6002 114.614 50.4946C114.818 50.3854 115.044 50.3308 115.289 50.3308C116.076 50.3308 116.469 50.7586 116.469 51.6142V53.7023H116.052V51.6488C116.052 51.3211 115.987 51.0808 115.854 50.9261C115.723 50.7713 115.513 50.693 115.226 50.693C114.898 50.693 114.634 50.795 114.434 51.0007C114.239 51.201 114.141 51.4722 114.141 51.8126V53.7023H113.724H113.726ZM118.566 53.7569C118.344 53.7569 118.144 53.7132 117.965 53.6277C117.792 53.5421 117.654 53.4238 117.549 53.2727C117.448 53.1234 117.399 52.9541 117.399 52.7684C117.399 52.5226 117.461 52.3315 117.583 52.1949C117.705 52.0548 117.913 51.9546 118.204 51.8946C118.495 51.8363 118.896 51.8054 119.405 51.8054H119.617V51.5596C119.617 51.2556 119.555 51.0335 119.433 50.8969C119.311 50.7568 119.114 50.6858 118.847 50.6858C118.646 50.6858 118.453 50.7149 118.266 50.775C118.084 50.8332 117.894 50.9279 117.7 51.0553L117.536 50.7349C117.709 50.6129 117.913 50.5146 118.149 50.4418C118.386 50.369 118.615 50.3326 118.837 50.3326C119.238 50.3326 119.533 50.4345 119.724 50.6402C119.919 50.8441 120.017 51.1591 120.017 51.5814V53.7023H119.622V53.1088C119.531 53.3127 119.393 53.4729 119.205 53.5858C119.023 53.6987 118.81 53.7569 118.564 53.7569H118.566ZM118.621 53.4219C118.816 53.4219 118.987 53.3764 119.132 53.2854C119.282 53.1907 119.4 53.0597 119.487 52.8958C119.573 52.732 119.617 52.5463 119.617 52.3369V52.1112H119.413C119.003 52.1112 118.683 52.1294 118.451 52.1658C118.224 52.2022 118.066 52.2659 117.975 52.357C117.883 52.448 117.838 52.5736 117.838 52.732C117.838 52.9359 117.909 53.1034 118.049 53.2308C118.189 53.3582 118.38 53.4219 118.623 53.4219H118.621ZM121.12 53.7023V50.3927H121.53V50.9734C121.734 50.5456 122.083 50.3326 122.575 50.3326C123.103 50.3326 123.436 50.562 123.578 51.0225C123.673 50.8095 123.818 50.6402 124.015 50.5183C124.21 50.3945 124.437 50.3344 124.698 50.3344C125.429 50.3344 125.795 50.7622 125.795 51.6178V53.7059H125.378V51.6524C125.378 51.3247 125.318 51.0844 125.2 50.9297C125.087 50.775 124.892 50.6967 124.621 50.6967C124.33 50.6967 124.099 50.7986 123.926 51.0043C123.753 51.2046 123.667 51.4777 123.667 51.8236V53.7059H123.25V51.6524C123.25 51.3247 123.192 51.0844 123.074 50.9297C122.959 50.775 122.77 50.6967 122.5 50.6967C122.205 50.6967 121.97 50.7986 121.798 51.0043C121.625 51.2046 121.539 51.4777 121.539 51.8236V53.7059H121.122L121.12 53.7023ZM127.907 53.7569C127.685 53.7569 127.485 53.7132 127.306 53.6277C127.133 53.5421 126.995 53.4238 126.889 53.2727C126.789 53.1234 126.74 52.9541 126.74 52.7684C126.74 52.5226 126.802 52.3315 126.924 52.1949C127.048 52.0548 127.254 51.9546 127.545 51.8946C127.836 51.8363 128.237 51.8054 128.746 51.8054H128.958V51.5596C128.958 51.2556 128.896 51.0335 128.774 50.8969C128.652 50.7568 128.455 50.6858 128.187 50.6858C127.987 50.6858 127.794 50.7149 127.607 50.775C127.425 50.8332 127.235 50.9279 127.041 51.0553L126.877 50.7349C127.05 50.6129 127.254 50.5146 127.49 50.4418C127.727 50.369 127.956 50.3326 128.178 50.3326C128.579 50.3326 128.874 50.4345 129.065 50.6402C129.26 50.8441 129.358 51.1591 129.358 51.5814V53.7023H128.963V53.1088C128.872 53.3127 128.734 53.4729 128.546 53.5858C128.364 53.6987 128.151 53.7569 127.905 53.7569H127.907ZM127.962 53.4219C128.157 53.4219 128.328 53.3764 128.473 53.2854C128.623 53.1907 128.741 53.0597 128.828 52.8958C128.914 52.732 128.958 52.5463 128.958 52.3369V52.1112H128.754C128.344 52.1112 128.024 52.1294 127.792 52.1658C127.565 52.2022 127.406 52.2659 127.315 52.357C127.224 52.448 127.179 52.5736 127.179 52.732C127.179 52.9359 127.25 53.1034 127.39 53.2308C127.53 53.3582 127.721 53.4219 127.964 53.4219H127.962ZM133.239 53.7569C132.994 53.7569 132.757 53.7205 132.529 53.6477C132.307 53.5749 132.122 53.4711 131.976 53.3346L132.125 53.0269C132.293 53.1634 132.473 53.2636 132.664 53.3273C132.855 53.3855 133.05 53.4165 133.25 53.4165C133.532 53.4165 133.744 53.3673 133.886 53.2672C134.031 53.1634 134.104 53.0196 134.104 52.8376C134.104 52.6974 134.057 52.5845 133.96 52.5026C133.866 52.4207 133.714 52.3551 133.511 52.3042L132.917 52.1676C132.358 52.0402 132.078 51.7507 132.078 51.3011C132.078 51.0098 132.191 50.775 132.418 50.5984C132.646 50.4218 132.946 50.3326 133.319 50.3326C133.547 50.3326 133.76 50.3708 133.96 50.4491C134.16 50.5219 134.324 50.6293 134.452 50.7695L134.288 51.0772C134.157 50.9461 134.006 50.8478 133.838 50.7841C133.669 50.7149 133.494 50.6821 133.312 50.6821C133.048 50.6821 132.844 50.7367 132.699 50.846C132.558 50.9552 132.487 51.1026 132.487 51.2902C132.487 51.4303 132.531 51.545 132.617 51.6306C132.702 51.7161 132.844 51.7835 133.039 51.829L133.633 51.9656C133.927 52.0347 134.15 52.1367 134.295 52.2732C134.441 52.4043 134.514 52.5845 134.514 52.8121C134.514 53.107 134.397 53.34 134.166 53.5075C133.935 53.6768 133.625 53.7606 133.237 53.7606L133.239 53.7569ZM136.858 53.7569C136.349 53.7569 135.946 53.6076 135.651 53.3073C135.36 53.0032 135.215 52.5863 135.215 52.0584C135.215 51.718 135.28 51.4176 135.413 51.1573C135.544 50.8988 135.726 50.6949 135.959 50.5492C136.196 50.4036 136.467 50.3308 136.771 50.3308C137.212 50.3308 137.556 50.4746 137.801 50.7604C138.047 51.0462 138.169 51.4413 138.169 51.9401V52.1312H135.624C135.639 52.5408 135.75 52.8576 135.959 53.0797C136.172 53.2982 136.469 53.4074 136.846 53.4074C137.05 53.4074 137.241 53.3764 137.419 53.3127C137.601 53.249 137.778 53.1416 137.951 52.9923L138.115 53.3054C137.969 53.4456 137.783 53.5585 137.556 53.6404C137.328 53.7169 137.097 53.7569 136.86 53.7569H136.858ZM136.776 50.6657C136.431 50.6657 136.159 50.775 135.965 50.9934C135.773 51.2064 135.662 51.4849 135.63 51.8254H137.792C137.783 51.4613 137.692 51.1773 137.519 50.9734C137.346 50.7695 137.099 50.6657 136.776 50.6657ZM139.03 53.7023V50.3927H139.44V50.9734C139.644 50.5456 139.993 50.3326 140.483 50.3326C141.011 50.3326 141.344 50.562 141.486 51.0225C141.581 50.8095 141.726 50.6402 141.923 50.5183C142.118 50.3945 142.345 50.3344 142.606 50.3344C143.338 50.3344 143.703 50.7622 143.703 51.6178V53.7059H143.287V51.6524C143.287 51.3247 143.228 51.0844 143.11 50.9297C142.995 50.775 142.802 50.6967 142.529 50.6967C142.238 50.6967 142.007 50.7986 141.834 51.0043C141.661 51.2046 141.575 51.4777 141.575 51.8236V53.7059H141.158V51.6524C141.158 51.3247 141.098 51.0844 140.98 50.9297C140.867 50.775 140.676 50.6967 140.407 50.6967C140.112 50.6967 139.877 50.7986 139.704 51.0043C139.531 51.2046 139.445 51.4777 139.445 51.8236V53.7059H139.028L139.03 53.7023ZM144.794 54.9311V50.3945H145.211V51.0153C145.311 50.8059 145.46 50.6402 145.66 50.5164C145.864 50.3927 146.101 50.3326 146.37 50.3326C146.665 50.3326 146.924 50.4036 147.142 50.5438C147.364 50.6839 147.536 50.8824 147.654 51.1372C147.776 51.3921 147.838 51.6943 147.838 52.0438C147.838 52.3934 147.776 52.6992 147.654 52.9577C147.536 53.2126 147.364 53.411 147.142 53.5512C146.924 53.6877 146.667 53.7551 146.37 53.7551C146.103 53.7551 145.866 53.6968 145.66 53.5785C145.46 53.4602 145.311 53.2963 145.211 53.087V54.9293H144.794V54.9311ZM146.309 53.4092C146.645 53.4092 146.913 53.2909 147.113 53.0542C147.313 52.8139 147.414 52.4771 147.414 52.0438C147.414 51.6106 147.313 51.2774 147.113 51.0407C146.913 50.8041 146.645 50.6858 146.309 50.6858C145.972 50.6858 145.704 50.8041 145.504 51.0407C145.304 51.2774 145.204 51.6124 145.204 52.0438C145.204 52.4753 145.304 52.8121 145.504 53.0542C145.704 53.2909 145.972 53.4092 146.309 53.4092ZM148.717 53.7023V50.3927H149.127V50.9934C149.221 50.7841 149.362 50.6257 149.544 50.5164C149.726 50.4072 149.957 50.3435 150.239 50.3253L150.41 50.3107L150.45 50.673L150.157 50.7076C149.835 50.7349 149.584 50.8423 149.407 51.028C149.23 51.2101 149.141 51.4558 149.141 51.7653V53.7023H148.719H148.717ZM152.449 53.7569C151.939 53.7569 151.537 53.6076 151.242 53.3073C150.951 53.0032 150.805 52.5863 150.805 52.0584C150.805 51.718 150.871 51.4176 151.004 51.1573C151.135 50.8988 151.317 50.6949 151.55 50.5492C151.786 50.4036 152.058 50.3308 152.362 50.3308C152.802 50.3308 153.146 50.4746 153.392 50.7604C153.638 51.0462 153.76 51.4413 153.76 51.9401V52.1312H151.215C151.229 52.5408 151.34 52.8576 151.55 53.0797C151.763 53.2982 152.059 53.4074 152.436 53.4074C152.64 53.4074 152.831 53.3764 153.01 53.3127C153.192 53.249 153.368 53.1416 153.541 52.9923L153.705 53.3054C153.56 53.4456 153.374 53.5585 153.146 53.6404C152.919 53.7169 152.688 53.7569 152.451 53.7569H152.449ZM152.367 50.6657C152.021 50.6657 151.75 50.775 151.555 50.9934C151.364 51.2064 151.253 51.4849 151.22 51.8254H153.383C153.374 51.4613 153.283 51.1773 153.11 50.9734C152.937 50.7695 152.689 50.6657 152.365 50.6657H152.367ZM157.343 53.7569C157.12 53.7569 156.92 53.7132 156.742 53.6277C156.569 53.5421 156.43 53.4238 156.325 53.2727C156.225 53.1234 156.176 52.9541 156.176 52.7684C156.176 52.5226 156.237 52.3315 156.359 52.1949C156.483 52.0548 156.689 51.9546 156.98 51.8946C157.272 51.8363 157.672 51.8054 158.182 51.8054H158.393V51.5596C158.393 51.2556 158.331 51.0335 158.209 50.8969C158.087 50.7568 157.89 50.6858 157.623 50.6858C157.423 50.6858 157.23 50.7149 157.042 50.775C156.86 50.8332 156.671 50.9279 156.476 51.0553L156.312 50.7349C156.485 50.6129 156.689 50.5146 156.926 50.4418C157.162 50.369 157.392 50.3326 157.614 50.3326C158.014 50.3326 158.309 50.4345 158.5 50.6402C158.695 50.8441 158.793 51.1591 158.793 51.5814V53.7023H158.398V53.1088C158.307 53.3127 158.169 53.4729 157.982 53.5858C157.799 53.6987 157.586 53.7569 157.341 53.7569H157.343ZM157.397 53.4219C157.592 53.4219 157.763 53.3764 157.909 53.2854C158.058 53.1907 158.176 53.0597 158.264 52.8958C158.349 52.732 158.393 52.5463 158.393 52.3369V52.1112H158.189C157.779 52.1112 157.459 52.1294 157.228 52.1658C157 52.2022 156.842 52.2659 156.751 52.357C156.66 52.448 156.614 52.5736 156.614 52.732C156.614 52.9359 156.685 53.1034 156.826 53.2308C156.966 53.3582 157.157 53.4219 157.399 53.4219H157.397ZM161.235 53.7569C160.912 53.7569 160.634 53.6859 160.403 53.5457C160.172 53.4001 159.991 53.198 159.864 52.9377C159.742 52.6737 159.68 52.3697 159.68 52.0238C159.68 51.5013 159.817 51.0881 160.09 50.7895C160.366 50.4855 160.749 50.3326 161.237 50.3326C161.437 50.3326 161.635 50.3708 161.83 50.4491C162.025 50.5256 162.189 50.633 162.322 50.7695L162.158 51.0826C162.018 50.9461 161.866 50.8478 161.708 50.7895C161.55 50.7258 161.397 50.6949 161.251 50.6949C160.883 50.6949 160.598 50.8114 160.399 51.0426C160.204 51.2756 160.106 51.6051 160.106 52.0329C160.106 52.4607 160.204 52.7975 160.399 53.0433C160.599 53.2836 160.883 53.4056 161.251 53.4056C161.397 53.4056 161.55 53.3764 161.708 53.3164C161.868 53.2526 162.018 53.1525 162.158 53.016L162.322 53.3291C162.19 53.4602 162.023 53.5658 161.823 53.6422C161.628 53.7187 161.431 53.7587 161.237 53.7587L161.235 53.7569ZM164.39 53.7569C163.88 53.7569 163.478 53.6076 163.183 53.3073C162.891 53.0032 162.746 52.5863 162.746 52.0584C162.746 51.718 162.811 51.4176 162.944 51.1573C163.077 50.8969 163.257 50.6949 163.49 50.5492C163.727 50.4036 163.998 50.3308 164.302 50.3308C164.743 50.3308 165.087 50.4746 165.333 50.7604C165.578 51.0462 165.7 51.4413 165.7 51.9401V52.1312H163.155C163.17 52.5408 163.281 52.8576 163.49 53.0797C163.703 53.2982 164 53.4074 164.377 53.4074C164.581 53.4074 164.772 53.3764 164.95 53.3127C165.132 53.249 165.309 53.1416 165.482 52.9923L165.646 53.3054C165.5 53.4456 165.314 53.5585 165.087 53.6404C164.859 53.7169 164.628 53.7569 164.391 53.7569H164.39ZM164.308 50.6657C163.962 50.6657 163.691 50.775 163.496 50.9934C163.305 51.2064 163.194 51.4849 163.161 51.8254H165.324C165.314 51.4613 165.223 51.1773 165.05 50.9734C164.878 50.7695 164.63 50.6657 164.308 50.6657ZM167.625 53.7569C167.379 53.7569 167.142 53.7205 166.915 53.6477C166.691 53.5749 166.507 53.4711 166.361 53.3346L166.51 53.0269C166.678 53.1634 166.858 53.2636 167.049 53.3273C167.24 53.3855 167.435 53.4165 167.636 53.4165C167.918 53.4165 168.129 53.3673 168.271 53.2672C168.417 53.1634 168.489 53.0196 168.489 52.8376C168.489 52.6974 168.442 52.5845 168.346 52.5026C168.251 52.4207 168.1 52.3551 167.896 52.3042L167.302 52.1676C166.743 52.0402 166.463 51.7507 166.463 51.3011C166.463 51.0098 166.576 50.775 166.804 50.5984C167.031 50.4218 167.332 50.3326 167.705 50.3326C167.932 50.3326 168.145 50.3708 168.346 50.4491C168.546 50.5219 168.71 50.6293 168.837 50.7695L168.673 51.0772C168.542 50.9461 168.391 50.8478 168.224 50.7841C168.056 50.7149 167.879 50.6821 167.697 50.6821C167.433 50.6821 167.23 50.7367 167.084 50.846C166.944 50.9552 166.873 51.1026 166.873 51.2902C166.873 51.4303 166.916 51.545 167.002 51.6306C167.088 51.7161 167.23 51.7835 167.424 51.829L168.018 51.9656C168.313 52.0347 168.535 52.1367 168.679 52.2732C168.824 52.4043 168.897 52.5845 168.897 52.8121C168.897 53.107 168.781 53.34 168.549 53.5075C168.318 53.6768 168.009 53.7606 167.621 53.7606L167.625 53.7569ZM170.829 53.7569C170.607 53.7569 170.406 53.7132 170.228 53.6277C170.055 53.5421 169.917 53.4238 169.811 53.2727C169.711 53.1234 169.662 52.9541 169.662 52.7684C169.662 52.5226 169.724 52.3315 169.846 52.1949C169.969 52.0548 170.175 51.9546 170.466 51.8946C170.758 51.8363 171.158 51.8054 171.668 51.8054H171.879V51.5596C171.879 51.2556 171.817 51.0335 171.695 50.8969C171.571 50.7568 171.377 50.6858 171.109 50.6858C170.909 50.6858 170.716 50.7149 170.53 50.775C170.348 50.8332 170.159 50.9279 169.964 51.0553L169.8 50.7349C169.973 50.6129 170.177 50.5146 170.414 50.4418C170.65 50.369 170.88 50.3326 171.102 50.3326C171.502 50.3326 171.797 50.4345 171.988 50.6402C172.183 50.8441 172.281 51.1591 172.281 51.5814V53.7023H171.886V53.1088C171.795 53.3127 171.657 53.4729 171.469 53.5858C171.287 53.6987 171.074 53.7569 170.829 53.7569ZM170.883 53.4219C171.078 53.4219 171.249 53.3764 171.395 53.2854C171.544 53.1907 171.662 53.0597 171.75 52.8958C171.835 52.732 171.879 52.5463 171.879 52.3369V52.1112H171.675C171.266 52.1112 170.945 52.1294 170.714 52.1658C170.486 52.2022 170.328 52.2659 170.237 52.357C170.146 52.448 170.1 52.5736 170.1 52.732C170.1 52.9359 170.171 53.1034 170.312 53.2308C170.452 53.3582 170.643 53.4219 170.885 53.4219H170.883Z" fill="black"/>
<path d="M74.8528 2.23374C73.9408 1.0395 72.7138 0.442383 71.1718 0.442383H61.1719V19.8233H66.7098V0.637175C67.8822 0.637175 68.8489 1.23429 69.608 2.42853C70.3671 3.62277 70.7476 5.13195 70.7476 6.95608C70.7476 8.6291 70.4054 10.0946 69.7227 11.3544C69.0382 12.6141 68.1534 13.3951 67.0684 13.6992V13.8958H71.3029C72.7574 13.8958 73.9408 13.255 74.8528 11.9733C75.7649 10.6917 76.2218 9.04236 76.2218 7.02162C76.2218 5.00088 75.7649 3.42798 74.8528 2.23374Z" fill="black"/>
<path d="M79.9338 19.823H90.0958C90.8786 16.5006 91.2682 13.7644 91.2682 11.6144C91.2682 9.70287 90.9914 8.28654 90.438 7.36355C89.8846 6.44056 89.0326 5.97998 87.8821 5.97998H77.7183C76.9373 9.34606 76.5459 12.0822 76.5459 14.1885C76.5459 17.946 77.6746 19.823 79.9338 19.823ZM83.2562 6.17477C84.0153 6.30585 84.6179 6.83743 85.064 7.77134C85.5081 8.70525 85.7321 9.9541 85.7321 11.5161C85.7321 13.6224 85.3407 16.3258 84.5597 19.6263C83.7787 19.4953 83.1706 18.9691 82.7355 18.0462C82.3005 17.1232 82.0838 15.8907 82.0838 14.3488C82.0838 12.2861 82.4752 9.56088 83.2562 6.17295V6.17477Z" fill="black"/>
<path d="M97.8148 6.17513C98.3573 6.39177 98.7323 6.77771 98.938 7.33114C99.1437 7.88456 99.2475 8.64007 99.2475 9.594V19.8543H104.785V9.56123C104.785 8.7147 104.703 8.00836 104.541 7.44401C104.378 6.87966 104.046 6.45548 103.547 6.17331C104.503 6.26069 105.177 6.59202 105.566 7.16729C105.958 7.74257 106.153 8.55086 106.153 9.594V19.8215H111.691V10.1147C111.691 8.85488 111.463 7.85179 111.006 7.10175C110.549 6.35171 109.681 5.97852 108.401 5.97852H92.2769V19.8215H97.8148V6.17513Z" fill="black"/>
<path d="M118.596 6.17513C119.702 7.28198 120.598 8.54722 121.283 9.96902C121.967 11.3908 122.308 12.8417 122.308 14.3182C122.308 15.6216 122.009 16.8322 121.412 17.95C120.815 19.0678 119.93 19.6267 118.758 19.6267V19.8215H124.066C125.304 19.8215 126.238 19.2517 126.868 18.112C127.498 16.9724 127.813 15.729 127.813 14.3819C127.813 11.3854 126.564 8.58363 124.066 5.97852H113.058V25.3266H118.596V6.17513Z" fill="black"/>
<path d="M131.852 19.823H142.014C142.797 16.5006 143.187 13.7644 143.187 11.6144C143.187 9.70287 142.91 8.28654 142.357 7.36355C141.803 6.44056 140.951 5.97998 139.801 5.97998H129.639C128.858 9.34606 128.466 12.0822 128.466 14.1885C128.466 17.946 129.595 19.823 131.854 19.823H131.852ZM135.175 6.17477C135.934 6.30585 136.537 6.83743 136.983 7.77134C137.427 8.70525 137.651 9.9541 137.651 11.5161C137.651 13.6224 137.259 16.3258 136.478 19.6263C135.697 19.4953 135.089 18.9691 134.654 18.0462C134.219 17.1232 134.002 15.8907 134.002 14.3488C134.002 12.2861 134.394 9.56088 135.175 6.17295V6.17477Z" fill="black"/>
<path d="M66.7098 23.062H61.1719V42.4429H66.7098V23.062Z" fill="black"/>
<path d="M73.6478 23.062H68.1099V27.4585H73.6478V23.062Z" fill="black"/>
<path d="M73.6478 28.6001H68.1099V42.4758H73.6478V28.6001Z" fill="black"/>
<path d="M91.1699 28.5995H75.0459V42.4424H80.5838V28.7943C81.1263 29.0109 81.5013 29.3969 81.7071 29.9503C81.9128 30.5037 82.0165 31.2592 82.0165 32.2131V42.4734H87.5545V32.1804C87.5545 31.3338 87.4725 30.6275 87.3105 30.0631C87.1467 29.4988 86.8153 29.0746 86.3165 28.7924C87.2723 28.8798 87.9459 29.2112 88.3354 29.7864C88.7268 30.3617 88.9216 31.17 88.9216 32.2131V42.4406H94.4596V32.7338C94.4596 31.474 94.232 30.4709 93.775 29.7209C93.3181 28.9709 92.4497 28.5977 91.1699 28.5977V28.5995Z" fill="black"/>
<path d="M95.8286 28.6001V47.9482H101.367V28.7967C102.473 29.9036 103.369 31.1688 104.054 32.5906C104.738 34.0124 105.078 35.4633 105.078 36.9397C105.078 38.2432 104.78 39.4538 104.183 40.5716C103.586 41.6894 102.701 42.2483 101.529 42.2483V42.4431H106.837C108.075 42.4431 109.009 41.8733 109.639 40.7336C110.269 39.594 110.584 38.3506 110.584 37.0035C110.584 34.0069 109.335 31.2052 106.837 28.6001H95.8286Z" fill="black"/>
<path d="M117.13 28.6001H111.592V42.4758H117.13V28.6001Z" fill="black"/>
<path d="M130.011 31.4158C129.11 29.8192 127.878 28.8817 126.314 28.5977H119.8V28.7924C121.69 28.7924 123.156 29.4988 124.197 30.9097C125.238 32.3224 125.95 33.9881 126.33 35.9105C126.711 37.8312 126.955 39.9447 127.064 42.2458C125.999 42.2458 125.18 41.9964 124.605 41.4958C124.029 40.997 123.742 40.2688 123.742 39.313C123.742 37.7929 124.361 36.0343 125.599 34.0354H120.093C119.529 34.7964 119.069 35.6539 118.71 36.6096C118.351 37.5654 118.173 38.4337 118.173 39.2147C118.173 40.2142 118.493 41.0006 119.134 41.5759C119.775 42.1512 120.671 42.4388 121.821 42.4388H132.602C132.493 40.5273 132.26 38.6121 131.901 36.6897C131.542 34.7673 130.913 33.0087 130.011 31.4121V31.4158Z" fill="black"/>
<path d="M142.6 42.2481C141.34 42.2481 140.39 41.7001 139.751 40.6024C139.11 39.5065 138.79 38.2849 138.79 36.9377C138.79 35.4613 139.127 33.974 139.8 32.4757C140.474 30.9775 141.353 29.6868 142.438 28.5999H136.9C134.468 31.1395 133.252 33.9085 133.252 36.905C133.252 38.274 133.556 39.5265 134.164 40.6679C134.772 41.8075 135.695 42.3992 136.933 42.4429H148.138V23.062H142.6V42.2463V42.2481Z" fill="black"/>
<path d="M160.987 31.4158C160.086 29.8192 158.853 28.8817 157.29 28.5977H150.776V28.7924C152.666 28.7924 154.131 29.4988 155.172 30.9097C156.214 32.3224 156.926 33.9881 157.306 35.9105C157.687 37.8312 157.93 39.9447 158.04 42.2458C156.975 42.2458 156.155 41.9964 155.58 41.4958C155.005 40.997 154.717 40.2688 154.717 39.313C154.717 37.7929 155.336 36.0343 156.574 34.0354H151.069C150.505 34.7964 150.042 35.6539 149.685 36.6096C149.327 37.5654 149.148 38.4337 149.148 39.2147C149.148 40.2142 149.469 41.0006 150.11 41.5759C150.75 42.1512 151.646 42.4388 152.797 42.4388H163.578C163.468 40.5273 163.235 38.6121 162.877 36.6897C162.518 34.7673 161.888 33.0087 160.987 31.4121V31.4158Z" fill="black"/>
<path d="M178.005 34.5925V32.0511C178.005 29.75 176.951 28.5977 174.847 28.5977H164.619V32.5718C164.663 34.5707 165.65 35.5683 167.583 35.5683H169.667C170.689 35.5683 171.41 35.7959 171.834 36.2528C172.256 36.7079 172.469 37.4689 172.469 38.532V42.2458C171.601 42.2458 170.993 42.0237 170.645 41.5777C170.297 41.1335 170.124 40.3999 170.124 39.3786V36.4476H164.586V39.151C164.586 40.216 164.83 41.0297 165.32 41.5941C165.808 42.1585 166.52 42.4406 167.454 42.4406H178.007V38.6631C178.007 36.5131 176.942 35.4372 174.816 35.4372H172.861C171.883 35.4372 171.188 35.2097 170.776 34.7527C170.363 34.2976 170.157 33.5476 170.157 32.5062V28.7924C171.025 28.7924 171.628 29.0364 171.965 29.5261C172.302 30.014 172.469 30.846 172.469 32.0183V34.5925H178.007H178.005Z" fill="black"/>
<path d="M114.294 28.2321L115.941 25.6943H114.059L113.403 28.2321H114.294Z" fill="black"/>
<path d="M57.3159 0.442383V53.7025" stroke="black" stroke-width="0.182049" stroke-linecap="round" stroke-linejoin="round"/>
<path d="M174.812 48.0684C174.812 48.0684 176.196 49.1934 174.739 50.1492C172.837 51.398 173.665 53.7574 175.402 53.7574C177.139 53.7574 177.927 51.9041 177.444 50.4059C177.069 49.2389 176.316 48.569 174.812 48.0684Z" fill="black"/>
<path d="M176.214 50.4004C176.214 50.4004 175.89 50.9975 176.219 51.5819C176.549 52.1663 176.223 52.8471 175.609 52.8471C174.462 52.8471 174.655 50.719 176.214 50.4022V50.4004Z" fill="black"/>
<path d="M174.297 48.3374C174.297 48.3374 174.119 48.6651 174.301 48.9855C174.481 49.3059 174.302 49.6791 173.966 49.6791C173.338 49.6791 173.443 48.5122 174.297 48.3374Z" fill="black"/>
<path d="M175.398 47.6328C175.398 47.6328 175.113 46.6661 175.398 46.1309C175.398 46.1309 174.432 46.8827 175.398 47.6328Z" fill="black"/>
</g>
<defs>
<clipPath id="clip0_1_665">
<rect width="178.005" height="54.9313" fill="white"/>
</clipPath>
</defs>
</svg>
